<?xml version="1.0" encoding="UTF-8" standalone="no"?>
<!-- Created with Inkscape (http://www.inkscape.org/) -->

<svg
   width="32"
   height="32"
   viewBox="0 0 32 32"
   version="1.1"
   id="svg5"
   xmlns="http://www.w3.org/2000/svg"
   xmlns:svg="http://www.w3.org/2000/svg">
  <defs
     id="defs2" />
  <g
     id="layer1">
    <rect
       style="fill:none;stroke:#999999;stroke-width:0.5;stroke-linecap:round;stroke-linejoin:round"
       id="rect238"
       width="6"
       height="6"
       x="1"
       y="1"
       ry="0.91382581" />
    <rect
       style="fill:none;stroke:#b58909;stroke-width:0.5;stroke-linecap:round;stroke-linejoin:round;stroke-opacity:1"
       id="rect240"
       width="6"
       height="6"
       x="9"
       y="1"
       ry="0.91382581" />
    <rect
       style="fill:none;stroke:#b58909;stroke-width:0.5;stroke-linecap:round;stroke-linejoin:round;stroke-opacity:1"
       id="rect242"
       width="6"
       height="6"
       x="1"
       y="9"
       ry="0.91382581" />
    <rect
       style="fill:none;stroke:#b58909;stroke-width:0.5;stroke-linecap:round;stroke-linejoin:round;stroke-opacity:1"
       id="rect236-7"
       width="6"
       height="6"
       x="25"
       y="9"
       ry="0.91382581" />
    <rect
       style="fill:none;stroke:#999999;stroke-width:0.5;stroke-linecap:round;stroke-linejoin:round"
       id="rect238-5"
       width="6"
       height="6"
       x="17"
       y="1"
       ry="0.91382581" />
    <rect
       style="fill:none;stroke:#999999;stroke-width:0.5;stroke-linecap:round;stroke-linejoin:round"
       id="rect240-3"
       width="6"
       height="6"
       x="25"
       y="1"
       ry="0.91382581" />
    <rect
       style="fill:none;stroke:#b58909;stroke-width:0.5;stroke-linecap:round;stroke-linejoin:round;stroke-opacity:1"
       id="rect236-5"
       width="6"
       height="6"
       x="9"
       y="25"
       ry="0.91382581" />
    <rect
       style="fill:none;stroke:#999999;stroke-width:0.5;stroke-linecap:round;stroke-linejoin:round"
       id="rect238-4"
       width="6"
       height="6"
       x="1"
       y="17"
       ry="0.91382581" />
    <path
       id="rect240-2"
       style="fill:none;stroke:#999999;stroke-width:0.5;stroke-linecap:round;stroke-linejoin:round"
       d="m 13,17 h 1.086174 C 14.592434,17 15,17.407566 15,17.913826 v 4.172348 C 15,22.592434 14.592434,23 14.086174,23 H 13 m -2,0 H 9.9138258 C 9.4075663,23 9,22.592434 9,22.086174 V 17.913826 C 9,17.407566 9.4075663,17 9.9138258,17 H 11" />
    <rect
       style="fill:none;stroke:#999999;stroke-width:0.5;stroke-linecap:round;stroke-linejoin:round"
       id="rect242-7"
       width="6"
       height="6"
       x="1"
       y="25"
       ry="0.91382581" />
    <rect
       style="fill:none;stroke:#b58909;stroke-width:0.5;stroke-linecap:round;stroke-linejoin:round;stroke-opacity:1"
       id="rect236-53"
       width="6"
       height="6"
       x="25"
       y="25"
       ry="0.91382581" />
    <rect
       style="fill:none;stroke:#999999;stroke-width:0.5;stroke-linecap:round;stroke-linejoin:round"
       id="rect238-52"
       width="6"
       height="6"
       x="17"
       y="17"
       ry="0.91382581" />
    <path
       id="path4065"
       style="fill:none;stroke:#999999;stroke-width:0.5;stroke-linecap:round;stroke-linejoin:round"
       d="m 23,29 v 1.086174 C 23,30.592434 22.592434,31 22.086174,31 H 17.913826 C 17.407566,31 17,30.592434 17,30.086174 V 29 m 0,-2 V 25.913826 C 17,25.407566 17.407566,25 17.913826,25 h 4.172348 C 22.592434,25 23,25.407566 23,25.913826 V 27" />
    <path
       id="path4067"
       style="fill:none;stroke:#999999;stroke-width:0.5;stroke-linecap:round;stroke-linejoin:round"
       d="M 27,23 H 25.913826 C 25.407566,23 25,22.592434 25,22.086174 V 17.913826 C 25,17.407566 25.407566,17 25.913826,17 H 27 m 2,0 h 1.086174 C 30.592434,17 31,17.407566 31,17.913826 v 4.172348 C 31,22.592434 30.592434,23 30.086174,23 H 29" />
    <path
       id="path4069"
       style="fill:none;stroke:#999999;stroke-width:0.5;stroke-linecap:round;stroke-linejoin:round"
       d="M 17,11 V 9.913826 C 17,9.407566 17.407566,9 17.913826,9 h 4.172348 C 22.592434,9 23,9.407566 23,9.913826 V 11 m 0,2 v 1.086174 C 23,14.592434 22.592434,15 22.086174,15 H 17.913826 C 17.407566,15 17,14.592434 17,14.086174 V 13" />
    <path
       id="path4797"
       style="fill:none;stroke:#999999;stroke-width:0.5;stroke-linecap:round;stroke-linejoin:round"
       d="M 9,11 V 9.913826 C 9,9.407566 9.407566,9 9.913826,9 H 11 m 2,0 h 1.086174 C 14.592434,9 15,9.407566 15,9.913826 V 11 m 0,2 v 1.086174 C 15,14.592434 14.592434,15 14.086174,15 H 13 m -2,0 H 9.913826 C 9.407566,15 9,14.592434 9,14.086174 V 13" />
    <path
       style="fill:none;stroke:#b58909;stroke-width:0.5;stroke-linecap:round;stroke-linejoin:round;stroke-opacity:1"
       d="M 12,7 V 25"
       id="path14248" />
    <path
       style="fill:none;stroke:#b58909;stroke-width:0.5;stroke-linecap:round;stroke-linejoin:round;stroke-opacity:1"
       d="M 15,28 H 25"
       id="path14250" />
    <path
       style="fill:none;stroke:#b58909;stroke-width:0.5;stroke-linecap:round;stroke-linejoin:round;stroke-opacity:1"
       d="M 28,25 V 15"
       id="path14252" />
    <path
       style="fill:none;stroke:#b58909;stroke-width:0.5;stroke-linecap:round;stroke-linejoin:round;stroke-opacity:1"
       d="M 25,12 H 13"
       id="path14254" />
    <path
       style="fill:none;stroke:#b58909;stroke-width:0.5;stroke-linecap:round;stroke-linejoin:round;stroke-opacity:1"
       d="M 11,12 H 7"
       id="path14256" />
  </g>
</svg>
