<?xml version="1.0" encoding="UTF-8" standalone="no"?>
<!-- Created with Inkscape (http://www.inkscape.org/) -->

<svg
   width="32"
   height="32"
   viewBox="0 0 32 32"
   version="1.1"
   id="svg5"
   xmlns="http://www.w3.org/2000/svg"
   xmlns:svg="http://www.w3.org/2000/svg">
  <defs
     id="defs2" />
  <path
     style="fill:none;stroke:#999999;stroke-width:0.5;stroke-linecap:round;stroke-linejoin:round"
     d="M 5,31 H 1 l 2,-4 z"
     id="path247" />
  <circle
     style="fill:none;stroke:#999999;stroke-width:0.5;stroke-linecap:round;stroke-linejoin:round;stroke-miterlimit:10"
     id="path459"
     cx="16"
     cy="16"
     r="15" />
  <path
     style="fill:none;stroke:#999999;stroke-width:0.5;stroke-linecap:round;stroke-linejoin:round;stroke-miterlimit:10"
     id="path513"
     d="M 16,3 A 13,13 0 0 1 28.731428,13.371172 13,13 0 0 1 21.149037,27.936809 13,13 0 0 1 5.3510234,23.456494" />
  <path
     id="path1867"
     style="fill:none;stroke:#00a99d;stroke-width:0.5;stroke-linecap:round;stroke-linejoin:round;stroke-miterlimit:10"
     d="m 12.237778,26.336619 c 4.126108,1.50178 8.750106,0.405873 11.763332,-2.787961 3.013226,-3.193833 3.838418,-7.873729 2.099267,-11.905535 C 24.361226,7.611317 20.390912,5.0000001 16,5 v 1 c 3.991738,1e-7 7.601115,2.3739247 9.182161,6.039203 1.581047,3.665278 0.830872,7.919729 -1.908425,10.823214 -2.739297,2.903485 -6.942931,3.899764 -10.693938,2.534509 z" />
  <path
     id="path1873"
     style="fill:none;stroke:#00a99d;stroke-width:0.5;stroke-linecap:round;stroke-linejoin:round;stroke-miterlimit:10"
     d="m 19,21.196153 c 2.351808,-1.357817 3.498413,-4.125966 2.795555,-6.749067 C 21.092697,11.823985 18.715634,10 16,10 V 8 c 3.620846,-1e-7 6.790263,2.43198 7.727407,5.929448 C 24.66455,17.426916 23.135744,21.11778 20,22.928203 Z" />
</svg>
