<?xml version="1.0" encoding="UTF-8" standalone="no"?>
<!-- Created with Inkscape (http://www.inkscape.org/) -->

<svg
   width="32"
   height="32"
   viewBox="0 0 32 32"
   version="1.1"
   id="svg5"
   xmlns="http://www.w3.org/2000/svg"
   xmlns:svg="http://www.w3.org/2000/svg">
  <defs
     id="defs2" />
  <rect
     style="fill:none;stroke:#999999;stroke-width:0.5;stroke-linecap:round;stroke-linejoin:round;stroke-opacity:1"
     id="rect1190"
     width="6"
     height="10"
     x="2"
     y="9"
     ry="0.91382581" />
  <rect
     style="fill:none;stroke:#b58900;stroke-width:0.5;stroke-linecap:round;stroke-linejoin:round;stroke-opacity:1"
     id="rect1"
     width="6"
     height="10"
     x="9"
     y="9"
     ry="0.91382581" />
  <rect
     style="fill:none;stroke:#999999;stroke-width:0.5;stroke-linecap:round;stroke-linejoin:round;stroke-opacity:1"
     id="rect3"
     width="6"
     height="10"
     x="16"
     y="21"
     ry="0.91382581" />
  <rect
     style="fill:none;stroke:#b58900;stroke-width:0.5;stroke-linecap:round;stroke-linejoin:round;stroke-opacity:1"
     id="rect4"
     width="6"
     height="10"
     x="2"
     y="21"
     ry="0.91382581" />
  <rect
     style="fill:none;stroke:#b58900;stroke-width:0.5;stroke-linecap:round;stroke-linejoin:round;stroke-opacity:1"
     id="rect5"
     width="6"
     height="10"
     x="9"
     y="21"
     ry="0.91382581" />
  <path
     style="fill:#dddddd;stroke:#b58900;stroke-width:0.5;stroke-linejoin:round;stroke-miterlimit:8;paint-order:fill markers stroke"
     d="m 12,19 v 2"
     id="path6" />
  <path
     style="fill:#dddddd;stroke:#b58900;stroke-width:0.5;stroke-linejoin:round;stroke-miterlimit:8;paint-order:fill markers stroke"
     d="M 12,20 5,21"
     id="path7" />
  <path
     id="path8"
     style="fill:none;stroke:#999999;stroke-width:0.5;stroke-linejoin:round;stroke-miterlimit:8;paint-order:fill markers stroke"
     d="M 26,17.640625 C 28.391673,16.795051 29.993135,14.536739 30,12 30,8.686292 27.313708,6 24,6 c -3.313708,0 -6,2.686292 -6,6 0.0069,2.536739 1.608327,4.795051 4,5.640625" />
  <path
     style="fill:none;stroke:#999999;stroke-width:0.5;stroke-linejoin:round;stroke-miterlimit:8;paint-order:fill markers stroke"
     d="M 18,12 V 2 l 5,4"
     id="path9" />
  <path
     style="fill:none;stroke:#999999;stroke-width:0.5;stroke-linejoin:round;stroke-miterlimit:8;paint-order:fill markers stroke"
     d="M 30,12 V 2 l -5,4"
     id="path10" />
  <path
     style="fill:none;stroke:#999999;stroke-width:0.5;stroke-linejoin:round;stroke-miterlimit:8;paint-order:fill markers stroke"
     d="m 20,10 2,2 v 7 l 1,1 1,-1 1,1 1,-1 v -7 l 2,-2"
     id="path11" />
  <path
     style="fill:#999999;stroke:#999999;stroke-width:0.5;stroke-linejoin:round;stroke-miterlimit:8;paint-order:fill markers stroke"
     d="m 23,20 h 2 l -1,-1 z"
     id="path12" />
</svg>
