<?xml version="1.0" encoding="UTF-8" standalone="no"?>
<!-- Created with Inkscape (http://www.inkscape.org/) -->

<svg
   width="32"
   height="32"
   viewBox="0 0 32 32"
   version="1.1"
   id="svg5"
   xmlns="http://www.w3.org/2000/svg"
   xmlns:svg="http://www.w3.org/2000/svg">
  <defs
     id="defs2" />
  <g
     id="layer1">
    <path
       style="fill:none;stroke:#999999;stroke-width:0.5;stroke-linecap:round;stroke-linejoin:round"
       d="M 5,5 H 6 V 9"
       id="path247" />
    <path
       style="fill:none;stroke:#999999;stroke-width:0.5;stroke-linecap:round;stroke-linejoin:round"
       d="m 10,5 h 2 c 1,0 2,1 2,2 h -2 c -1,0 -2,1 -2,2 h 4"
       id="path249" />
    <path
       style="fill:none;stroke:#999999;stroke-width:0.5;stroke-linecap:round;stroke-linejoin:round"
       d="m 22,11 h 2 c 1,0 2,1 2,2 h -2 c -1,0 -2,1 -2,2 h 4"
       id="path249-5" />
    <path
       style="fill:none;stroke:#859900;stroke-width:0.5;stroke-linecap:round;stroke-linejoin:round;stroke-opacity:1"
       d="m 4,17 h 2 c 1,0 2,1 2,2 H 6 c -1,0 -2,1 -2,2 h 4"
       id="path249-5-2" />
    <path
       style="fill:none;stroke:#999999;stroke-width:0.5;stroke-linecap:round;stroke-linejoin:round"
       d="m 16,5 h 2 c 1,0 2,1 2,2 0,1 -1,2 -2,2 h -2"
       id="path251" />
    <path
       style="fill:none;stroke:#999999;stroke-width:0.5;stroke-linecap:round;stroke-linejoin:round"
       d="m 16,7 h 2.5"
       id="path253" />
    <path
       style="fill:none;stroke:#859900;stroke-width:0.5;stroke-linecap:round;stroke-linejoin:round;stroke-opacity:1"
       d="m 10,11 h 2 c 1,0 2,1 2,2 0,1 -1,2 -2,2 h -2"
       id="path251-5" />
    <path
       style="fill:none;stroke:#859900;stroke-width:0.5;stroke-linecap:round;stroke-linejoin:round;stroke-opacity:1"
       d="m 10,13 h 2.5"
       id="path253-4" />
    <path
       style="fill:none;stroke:#859900;stroke-width:0.5;stroke-linecap:round;stroke-linejoin:round;stroke-opacity:1"
       d="m 10,17 h 2 c 1,0 2,1 2,2 0,1 -1,2 -2,2 h -2"
       id="path251-5-2" />
    <path
       style="fill:none;stroke:#859900;stroke-width:0.5;stroke-linecap:round;stroke-linejoin:round;stroke-opacity:1"
       d="m 10,19 h 2.5"
       id="path253-4-6" />
    <path
       style="fill:none;stroke:#999999;stroke-width:0.5;stroke-linecap:round;stroke-linejoin:round"
       d="M 25,9 V 5 l -3,2 h 4"
       id="path409" />
    <path
       style="fill:none;stroke:#999999;stroke-width:0.5;stroke-linecap:round;stroke-linejoin:round"
       d="M 8,11 H 4 v 2 h 3 c 0.5,0 1,0.5 1,1 0,0.5 -0.5,1 -1,1 H 4"
       id="path662" />
    <path
       style="fill:none;stroke:#859900;stroke-width:0.5;stroke-linecap:round;stroke-linejoin:round;stroke-opacity:1"
       d="m 20,17 h -4 v 2 h 3 c 0.5,0 1,0.5 1,1 0,0.5 -0.5,1 -1,1 h -3"
       id="path662-1" />
    <path
       style="fill:none;stroke:#859900;stroke-width:0.5;stroke-linecap:round;stroke-linejoin:round;stroke-opacity:1"
       d="m 4,23 h 2 c 1,0 2,1 2,2 H 6 c -1,0 -2,1 -2,2 h 4"
       id="path249-5-2-4" />
    <path
       style="fill:none;stroke:#859900;stroke-width:0.5;stroke-linecap:round;stroke-linejoin:round;stroke-opacity:1"
       d="m 10,23 h 2 c 1,0 2,1 2,2 0,1 -1,2 -2,2 h -2"
       id="path251-5-2-7" />
    <path
       style="fill:none;stroke:#859900;stroke-width:0.5;stroke-linecap:round;stroke-linejoin:round;stroke-opacity:1"
       d="m 10,25 h 2.5"
       id="path253-4-6-5" />
    <path
       style="fill:none;stroke:#859900;stroke-width:0.5;stroke-linecap:round;stroke-linejoin:round;stroke-opacity:1"
       d="m 20,23 h -4 v 2 h 3 c 0.5,0 1,0.5 1,1 0,0.5 -0.5,1 -1,1 h -3"
       id="path662-1-1" />
    <path
       style="fill:none;stroke:#999999;stroke-width:0.5;stroke-linecap:round;stroke-linejoin:round"
       d="m 20,11 h -2 c -1,0 -2,1 -2,2 0,1 1,2 2,2 1,0 2,-1 2,-2 h -4"
       id="path664" />
    <path
       style="fill:none;stroke:#999999;stroke-width:0.5;stroke-linecap:round;stroke-linejoin:round"
       d="m 22,17 h 4 l -2,2 v 2"
       id="path737" />
    <circle
       style="fill:none;stroke:#859900;stroke-width:0.5;stroke-linecap:round;stroke-linejoin:round;stroke-opacity:1"
       id="path828"
       cx="24"
       cy="25"
       r="2" />
    <path
       style="fill:none;stroke:#859900;stroke-width:0.5;stroke-linecap:round;stroke-linejoin:round;stroke-opacity:1"
       d="m 22,25 h 4"
       id="path830" />
    <rect
       style="fill:none;fill-opacity:1;stroke:#999999;stroke-width:0.5;stroke-linecap:round;stroke-linejoin:round;stroke-opacity:1"
       id="rect3063"
       width="30"
       height="30"
       x="1"
       y="1"
       ry="2" />
    <circle
       style="fill:none;fill-opacity:1;stroke:#999999;stroke-width:0.5;stroke-linecap:round;stroke-linejoin:round;stroke-opacity:1"
       id="path3175"
       cx="27.5"
       cy="12.5"
       r="0.5" />
    <circle
       style="fill:none;fill-opacity:1;stroke:#999999;stroke-width:0.5;stroke-linecap:round;stroke-linejoin:round;stroke-opacity:1"
       id="path3177"
       cx="27.5"
       cy="17.5"
       r="0.5" />
    <circle
       style="fill:none;fill-opacity:1;stroke:#999999;stroke-width:0.5;stroke-linecap:round;stroke-linejoin:round;stroke-opacity:1"
       id="path3179"
       cx="27.5"
       cy="18.5"
       r="0.5" />
    <circle
       style="fill:none;fill-opacity:1;stroke:#999999;stroke-width:0.5;stroke-linecap:round;stroke-linejoin:round;stroke-opacity:1"
       id="path3181"
       cx="27.5"
       cy="19.5"
       r="0.5" />
    <circle
       style="fill:none;fill-opacity:1;stroke:#999999;stroke-width:0.5;stroke-linecap:round;stroke-linejoin:round;stroke-opacity:1"
       id="path3183"
       cx="27.5"
       cy="23.5"
       r="0.5" />
    <circle
       style="fill:none;fill-opacity:1;stroke:#999999;stroke-width:0.5;stroke-linecap:round;stroke-linejoin:round;stroke-opacity:1"
       id="path3185"
       cx="27.5"
       cy="24.5"
       r="0.5" />
    <circle
       style="fill:none;fill-opacity:1;stroke:#999999;stroke-width:0.5;stroke-linecap:round;stroke-linejoin:round;stroke-opacity:1"
       id="path3187"
       cx="27.5"
       cy="25.5"
       r="0.5" />
    <circle
       style="fill:none;fill-opacity:1;stroke:#999999;stroke-width:0.5;stroke-linecap:round;stroke-linejoin:round;stroke-opacity:1"
       id="path3189"
       cx="27.5"
       cy="26.5"
       r="0.5" />
  </g>
</svg>
