<?xml version="1.0" encoding="UTF-8" standalone="no"?>
<!-- Created with Inkscape (http://www.inkscape.org/) -->

<svg
   width="32.0px"
   height="32.0px"
   viewBox="0 0 32.0 32.0"
   version="1.1"
   id="SVGRoot"
   xmlns="http://www.w3.org/2000/svg"
   xmlns:svg="http://www.w3.org/2000/svg">
  <defs
     id="defs16808" />
  <g
     id="layer1">
    <circle
       style="fill:none;stroke:#007acc;stroke-linecap:round;stroke-linejoin:round;stroke-opacity:1;stroke-width:0.5"
       id="path18149"
       cx="4"
       cy="16"
       r="2" />
    <path
       style="fill:none;stroke:#999999;stroke-width:0.5;stroke-linecap:round;stroke-linejoin:round;stroke-opacity:1"
       d="M 22.024482,14.01224 24,14 c 1,0 2,1 2,2 h -2 c -1,0 -2,1 -2,2 h 4"
       id="path18153" />
    <path
       style="fill:none;stroke:#007acc;stroke-linecap:round;stroke-linejoin:round;stroke-opacity:1;stroke-width:0.5"
       d="m 27,14 h 1 c 1,0 2,1 2,2 0,1 -1,2 -2,2 h -1"
       id="path18155" />
    <path
       style="fill:none;stroke:#007acc;stroke-width:0.5;stroke-linecap:round;stroke-linejoin:round;stroke-opacity:1"
       d="m 27,16 h 1.5"
       id="path18159" />
    <path
       style="fill:none;stroke:#999999;stroke-width:0.5;stroke-linecap:round;stroke-linejoin:round;stroke-opacity:1"
       d="m 8,14 h 1 v 4"
       id="path18161" />
    <path
       style="fill:none;stroke-width:0.5;stroke:#999999;stroke-opacity:1;stroke-linecap:round;stroke-linejoin:round"
       d="M 7,7 2,12 H 30 L 25,7"
       id="path367" />
    <path
       style="fill:none;stroke:#999999;stroke-width:0.5;stroke-linecap:round;stroke-linejoin:round;stroke-opacity:1"
       d="m 25,25 5,-5 H 2 l 5,5"
       id="path986" />
    <circle
       style="fill:#999999;fill-opacity:1;stroke-width:0.5;stroke-linecap:round;stroke-linejoin:round"
       id="path412"
       cx="16"
       cy="16"
       r="0.25" />
    <circle
       style="fill:#999999;fill-opacity:1;stroke-width:0.5;stroke-linecap:round;stroke-linejoin:round"
       id="path412-2"
       cx="18"
       cy="16"
       r="0.25" />
    <circle
       style="fill:#999999;fill-opacity:1;stroke-width:0.5;stroke-linecap:round;stroke-linejoin:round"
       id="path412-28"
       cx="14"
       cy="16"
       r="0.25" />
  </g>
</svg>
