<?xml version="1.0" encoding="UTF-8" standalone="no"?>
<!-- Created with Inkscape (http://www.inkscape.org/) -->

<svg
   width="64"
   height="64"
   viewBox="0 0 64 64"
   version="1.1"
   id="svg1"
   xmlns="http://www.w3.org/2000/svg"
   xmlns:svg="http://www.w3.org/2000/svg">
  <defs
     id="defs1" />
  <g
     id="layer1">
    <path
       id="rect1"
       style="fill:none;stroke:#999999;stroke-width:1;stroke-miterlimit:8;paint-order:markers stroke fill"
       d="M 6,6 C 4.8920011,6 4,6.8920011 4,8 v 20 c 0,1.107999 0.8920011,2 2,2 H 31.544922 A 14,14 0 0 1 43,24 14,14 0 0 1 54.484375,30 H 58 c 1.107999,0 2,-0.892001 2,-2 V 8 C 60,6.8920011 59.107999,6 58,6 Z" />
    <path
       style="fill:none;stroke:#999999;stroke-width:1;stroke-linecap:round;stroke-miterlimit:8;paint-order:markers stroke fill"
       d="M 15,11 V 25"
       id="path3" />
    <path
       style="fill:none;stroke:#999999;stroke-width:1;stroke-linecap:round;stroke-miterlimit:8;paint-order:markers stroke fill"
       d="m 21.062178,14.5 -12.124356,7"
       id="path4" />
    <path
       style="fill:none;stroke:#999999;stroke-width:1;stroke-linecap:round;stroke-miterlimit:8;paint-order:markers stroke fill"
       d="M 21.062178,21.5 8.937822,14.5"
       id="path5" />
    <path
       style="fill:none;stroke:#999999;stroke-width:1;stroke-linecap:round;stroke-miterlimit:8;paint-order:markers stroke fill"
       d="M 32,11 V 25"
       id="path3-8" />
    <path
       style="fill:none;stroke:#999999;stroke-width:1;stroke-linecap:round;stroke-miterlimit:8;paint-order:markers stroke fill"
       d="m 38.062178,14.5 -12.124356,7"
       id="path4-8" />
    <path
       style="fill:none;stroke:#999999;stroke-width:1;stroke-linecap:round;stroke-miterlimit:8;paint-order:markers stroke fill"
       d="m 38.062178,21.5 -12.124356,-7"
       id="path5-8" />
    <path
       style="fill:none;stroke:#dc322f;stroke-width:1;stroke-linecap:round;stroke-miterlimit:8;paint-order:markers stroke fill"
       d="M 49,11 V 23"
       id="path3-8-4" />
    <path
       style="fill:none;stroke:#dc322f;stroke-width:1;stroke-linecap:round;stroke-miterlimit:8;paint-order:markers stroke fill"
       d="m 55.062178,14.5 -12.124356,7"
       id="path4-8-8" />
    <path
       style="fill:none;stroke:#dc322f;stroke-width:1;stroke-linecap:round;stroke-miterlimit:8;paint-order:markers stroke fill"
       d="m 55.062178,21.5 -12.124356,-7"
       id="path5-8-9" />
    <path
       id="path6"
       style="fill:none;stroke:#999999;stroke-width:1;stroke-linecap:round;stroke-miterlimit:8;paint-order:markers stroke fill"
       d="m 43,24 a 14,14 0 0 0 -14,14 14,14 0 0 0 1.027344,5.179688 l -17.472656,10.08789 c -0.959556,0.554 -1.286422,1.772867 -0.732422,2.732422 0.553999,0.959555 1.772866,1.286421 2.732422,0.732422 L 32.027344,46.644531 A 14,14 0 0 0 43,52 14,14 0 0 0 57,38 14,14 0 0 0 43,24 Z" />
    <circle
       style="fill:none;stroke:#999999;stroke-width:1;stroke-linecap:round;stroke-miterlimit:8;paint-order:markers stroke fill"
       id="path7"
       cx="43"
       cy="38"
       r="11" />
    <path
       style="fill:none;stroke:#dc322f;stroke-width:1;stroke-linecap:round;stroke-miterlimit:8;paint-order:markers stroke fill"
       d="m 37,40 3,3 9,-9"
       id="path8" />
  </g>
</svg>
