<?xml version="1.0" encoding="UTF-8" standalone="no"?>
<!-- Created with Inkscape (http://www.inkscape.org/) -->

<svg
   width="32"
   height="32"
   viewBox="0 0 32 32"
   version="1.1"
   id="svg5"
   xmlns="http://www.w3.org/2000/svg"
   xmlns:svg="http://www.w3.org/2000/svg">
  <defs
     id="defs2" />
  <path
     id="path1"
     style="fill:none;stroke-linecap:round;stroke-miterlimit:8;paint-order:markers stroke fill;stroke:#999999;stroke-width:0.5"
     d="M 16 1 A 15 15 0 0 0 13.880859 1.1503906 L 12.917969 3.4003906 A 13 13 0 0 0 9.2578125 4.9082031 L 7.0390625 4.0195312 A 15 15 0 0 0 4.0195312 7.0390625 L 4.9082031 9.2578125 A 13 13 0 0 0 3.4003906 12.917969 L 1.1503906 13.880859 A 15 15 0 0 0 1 16 A 15 15 0 0 0 1.1503906 18.119141 L 3.4003906 19.082031 A 13 13 0 0 0 4.9082031 22.742188 L 4.0195312 24.960938 A 15 15 0 0 0 7.0390625 27.980469 L 9.2578125 27.091797 A 13 13 0 0 0 12.917969 28.599609 L 13.880859 30.849609 A 15 15 0 0 0 16 31 A 15 15 0 0 0 18.119141 30.849609 L 19.082031 28.599609 A 13 13 0 0 0 22.742188 27.091797 L 24.960938 27.980469 A 15 15 0 0 0 27.980469 24.960938 L 27.091797 22.742188 A 13 13 0 0 0 28.599609 19.082031 L 30.849609 18.119141 A 15 15 0 0 0 31 16 A 15 15 0 0 0 30.847656 13.880859 L 28.630859 12.931641 A 13 13 0 0 0 27.099609 9.2382812 L 27.998047 6.9980469 A 15 15 0 0 0 25.001953 4.0019531 L 22.761719 4.9003906 A 13 13 0 0 0 19.068359 3.3691406 L 18.119141 1.1523438 A 15 15 0 0 0 16 1 z " />
  <circle
     style="fill:none;stroke:#999999;stroke-width:0.5;stroke-linecap:round;stroke-miterlimit:8;paint-order:markers stroke fill"
     id="path3"
     cx="16"
     cy="16"
     r="10" />
  <ellipse
     style="fill:none;stroke:#58c4dc;stroke-width:0.5;stroke-linecap:round;stroke-miterlimit:8;paint-order:markers stroke fill"
     id="path5"
     cx="16"
     cy="16"
     rx="8"
     ry="4" />
  <ellipse
     style="fill:none;stroke:#58c4dc;stroke-width:0.5;stroke-linecap:round;stroke-miterlimit:8;paint-order:markers stroke fill"
     id="ellipse5"
     cx="21.856407"
     cy="-5.8564067"
     rx="8"
     ry="4"
     transform="rotate(60)" />
  <ellipse
     style="fill:none;stroke:#58c4dc;stroke-width:0.5;stroke-linecap:round;stroke-miterlimit:8;paint-order:markers stroke fill"
     id="ellipse6"
     cx="-5.8564067"
     cy="21.856407"
     rx="8"
     ry="4"
     transform="rotate(-60)" />
  <circle
     style="fill:none;stroke:#58c4dc;stroke-width:0.5;stroke-linecap:round;stroke-miterlimit:8;paint-order:markers stroke fill"
     id="path6"
     cx="16"
     cy="16"
     r="1.5" />
</svg>
