<?xml version="1.0" encoding="UTF-8" standalone="no"?>
<svg
   width="32"
   height="32"
   viewBox="0 0 32 32"
   version="1.1"
   id="svg18"
   xmlns:xlink="http://www.w3.org/1999/xlink"
   xmlns="http://www.w3.org/2000/svg"
   xmlns:svg="http://www.w3.org/2000/svg">
  <defs
     id="defs12">
    <linearGradient
       id="linearGradient4078">
      <stop
         style="stop-color:#0041cc;stop-opacity:1;"
         offset="0"
         id="stop4074" />
      <stop
         style="stop-color:#002d99;stop-opacity:1;"
         offset="1"
         id="stop4076" />
    </linearGradient>
    <linearGradient
       xlink:href="#linearGradient4078"
       id="linearGradient4080"
       x1="17"
       y1="0"
       x2="17"
       y2="32"
       gradientUnits="userSpaceOnUse" />
  </defs>
  <rect
     style="opacity:1;fill:url(#linearGradient4080);fill-opacity:1;stroke:none;stroke-width:0.5;stroke-linecap:round;stroke-linejoin:round;stroke-miterlimit:10"
     id="rect1857"
     width="32"
     height="32"
     x="0"
     y="0" />
  <path
     id="rect2073"
     style="opacity:0.25;fill:#000000;fill-opacity:1;stroke:none;stroke-width:0.5;stroke-linecap:round;stroke-linejoin:round;stroke-miterlimit:10"
     d="M 15.5 0 L 15.5 1 L 15.5 3 L 15.5 5 L 15.5 7 L 15.5 9 L 15.5 11 L 15.5 13 L 15.5 15.5 L 0 15.5 L 0 16.5 L 1.5 16.5 L 1.5 20.207031 L 4.5 23.207031 L 4.5 25.5 L 2.5 25.5 L 2.5 28.792969 L 1.5 27.792969 L 1.5 24.5 L 3 24.5 L 3 23.5 L 0.5 23.5 L 0.5 28.207031 L 2.5 30.207031 L 2.5 32 L 3.5 32 L 3.5 26.5 L 5.5 26.5 L 5.5 22.792969 L 2.5 19.792969 L 2.5 16.5 L 10.5 16.5 L 10.5 16.792969 L 8.5 18.792969 L 8.5 25.5 L 7.5 25.5 L 7.5 18.5 L 6.5 18.5 L 6.5 17 L 5.5 17 L 5.5 18.5 L 4 18.5 L 4 19.5 L 6.5 19.5 L 6.5 26.5 L 8.5 26.5 L 8.5 28.5 L 4.7929688 28.5 L 8.2929688 32 L 9.7070312 32 L 7.2070312 29.5 L 9.5 29.5 L 9.5 28.5 L 10.707031 28.5 L 11.5 27.707031 L 13 29.207031 L 13 30.5 L 10.5 30.5 L 10.5 31.5 L 14 31.5 L 14 28.792969 L 12.207031 27 L 13 26.207031 L 13 24.449219 L 13.001953 24.449219 C 14.138323 24.21505 15 23.202936 15 22 C 15 20.797064 14.13637 19.78495 13 19.550781 L 13 18.5 L 15.5 18.5 L 15.5 32 L 16.5 32 L 16.5 16.5 L 19 16.5 L 21 16.5 L 23 16.5 L 25 16.5 L 27 16.5 L 29 16.5 L 31 16.5 L 32 16.5 L 32 15.5 L 31.5 15.5 L 31.5 0 L 30.5 0 L 30.5 10.525391 C 30.220156 9.7855959 29.884875 9.0735013 29.5 8.3925781 L 29.5 0 L 28.5 0 L 28.5 6.8417969 C 28.187191 6.4157741 27.853721 6.004647 27.5 5.6132812 L 27.5 0 L 26.5 0 L 26.5 4.6054688 C 26.179289 4.3097742 25.844808 4.0278752 25.5 3.7597656 L 25.5 0 L 24.5 0 L 24.5 3.0429688 C 24.175191 2.8293412 23.841176 2.6267505 23.5 2.4375 L 23.5 0 L 22.5 0 L 22.5 1.9316406 C 22.172593 1.7799503 21.839262 1.6387846 21.5 1.5097656 L 21.5 0 L 20.5 0 L 20.5 1.1660156 C 20.171516 1.0663585 19.837283 0.98035748 19.5 0.90234375 L 19.5 0 L 18.5 0 L 18.5 0.70507812 C 17.846297 0.59885514 17.178305 0.53331713 16.5 0.51171875 L 16.5 0 L 15.5 0 z M 1 1 L 1 2 L 7 2 L 7 1 L 1 1 z M 8 1 L 8 2 L 14 2 L 14 1 L 8 1 z M 16.5 1.5136719 C 24.114934 1.7718797 30.22812 7.8850647 30.486328 15.5 L 29.488281 15.5 C 29.23016 8.4483608 23.551639 2.7698411 16.5 2.5117188 L 16.5 1.5136719 z M 1 3 L 1 4 L 4 4 L 4 3 L 1 3 z M 5 3 L 5 4 L 10 4 L 10 3 L 5 3 z M 11 3 L 11 4 L 14 4 L 14 3 L 11 3 z M 16.5 3.5117188 C 23.01122 3.7672382 28.232763 8.988779 28.488281 15.5 L 27.486328 15.5 C 27.23112 9.5519214 22.448078 4.7688793 16.5 4.5136719 L 16.5 3.5117188 z M 1 5 L 1 6 L 6 6 L 6 5 L 1 5 z M 7 5 L 7 6 L 9 6 L 9 5 L 7 5 z M 10 5 L 10 6 L 12 6 L 12 5 L 10 5 z M 16.5 5.5117188 C 21.906388 5.7644213 26.23558 10.093612 26.488281 15.5 L 25.488281 15.5 C 25.236247 10.656645 21.343355 6.7637544 16.5 6.5117188 L 16.5 5.5117188 z M 1 7 L 1 8 L 8 8 L 8 7 L 1 7 z M 9 7 L 9 8 L 13 8 L 13 7 L 9 7 z M 16.5 7.515625 C 20.800776 7.7645722 24.235427 11.199224 24.484375 15.5 L 23.480469 15.5 C 23.232829 11.762295 20.237705 8.7671704 16.5 8.5195312 L 16.5 7.515625 z M 1 9 L 1 10 L 14 10 L 14 9 L 1 9 z M 16.5 9.5195312 C 19.696338 9.761421 22.238579 12.303662 22.480469 15.5 L 21.474609 15.5 C 21.235577 12.866994 19.133006 10.764423 16.5 10.525391 L 16.5 9.5195312 z M 1 11 L 1 12 L 4 12 L 4 11 L 1 11 z M 5 11 L 5 12 L 10 12 L 10 11 L 5 11 z M 11 11 L 11 12 L 13 12 L 13 11 L 11 11 z M 16.5 11.527344 C 18.590342 11.756941 20.243059 13.409658 20.472656 15.5 L 19.462891 15.5 C 19.355594 14.756502 19.011992 14.062771 18.474609 13.525391 C 17.937229 12.988008 17.243498 12.644406 16.5 12.537109 L 16.5 11.527344 z M 1 13 L 1 14 L 6 14 L 6 13 L 1 13 z M 7 13 L 7 14 L 11 14 L 11 13 L 7 13 z M 16.5 13.550781 C 16.976744 13.648093 17.418234 13.883077 17.767578 14.232422 C 18.116923 14.581766 18.351907 15.023256 18.449219 15.5 L 16.5 15.5 L 16.5 13.550781 z M 11.5 16.5 L 15.5 16.5 L 15.5 17.5 L 12 17.5 L 12 19.550781 L 11.998047 19.550781 C 10.861677 19.78495 10 20.797064 10 22 C 10 23.202936 10.86363 24.21505 12 24.449219 L 12 25.792969 L 10.292969 27.5 L 9.5 27.5 L 9.5 19.207031 L 11.5 17.207031 L 11.5 16.5 z M 25.552734 19.777344 L 21.552734 27.777344 L 22.447266 28.222656 L 26.447266 20.222656 L 25.552734 19.777344 z M 12.5 20.5 C 13.334346 20.5 14 21.165654 14 22 C 14 22.834346 13.334346 23.5 12.5 23.5 C 11.665654 23.5 11 22.834346 11 22 C 11 21.165654 11.665654 20.5 12.5 20.5 z M 20.646484 20.646484 L 17.292969 24 L 20.646484 27.353516 L 21.353516 26.646484 L 18.707031 24 L 21.353516 21.353516 L 20.646484 20.646484 z M 27.353516 20.646484 L 26.646484 21.353516 L 29.292969 24 L 26.646484 26.646484 L 27.353516 27.353516 L 30.707031 24 L 27.353516 20.646484 z " />
  <path
     id="path14"
     style="color:#000000;opacity:1;fill:#cccccc;fill-opacity:1;stroke-width:1.18182;-inkscape-stroke:none"
     d="m 7.4825995,9.5 v 13 H 24.5174 l -6.5,-6.5 6.5,-6.5 h -3.342328 l -4.828836,4.828835 -4.136363,-4.136364 v 3.34233 L 14.675071,16 11.720525,18.954545 h 3.34233 l 1.28338,-1.283381 2.4652,2.4652 H 9.8462355 V 9.5 Z" />
</svg>
